# xmcd
#
# Track frame offsets:
#	150
#	44728
#	153258
#	190696
#
# Disc length: 3543 seconds
# Revision: 3
# Processed by: cddbd v1.5.2PL0 Copyright (c) Steve Scherf et al.
# Submitted via: dBpowerAMP V12.0
#
DISCID=2c0dd504
DTITLE=Christoph Ransmayr - Atlas eines ängstlichen Mannes
DYEAR=2012
DGENRE=Hörbuch
TTITLE0=Der Hirtenhund, Türkei
TTITLE1=Im Schatten des Vogelmannes, Osterinseln, Chile
TTITLE2=Jagdszenen, Paraguay
TTITLE3=Der Schreiber, Tibet
EXTD=
EXTT0=
EXTT1=
EXTT2=
EXTT3=
PLAYORDER=
